{"glyphs":{":":{"x_min":0,"x_max":210,"ha":210,"o":"m 180 400 l 30 400 l 30 460 l 180 460 z m 180 320 l 30 320 l 30 380 l 180 380 z m 180 80 l 30 80 l 30 140 l 180 140 z m 180 0 l 30 0 l 30 60 l 180 60 z"},"?":{"x_min":0,"x_max":510,"ha":510,"o":"m 472 640 l 30 640 l 30 700 l 380 700 q 446 700 472 640 z m 480 480 l 330 480 l 330 540 l 480 540 z m 480 560 l 30 560 l 30 620 l 478 620 q 480 610 480 600 z m 480 420 q 480 410 478 400 l 38 400 q 64 460 130 460 l 480 460 z m 472 380 q 446 320 380 320 l 30 320 l 30 360 q 30 370 32 380 z m 180 240 l 30 240 l 30 300 l 180 300 z m 180 80 l 30 80 l 30 140 l 180 140 z m 180 0 l 30 0 l 30 60 l 180 60 z"},"'":{"x_min":0,"x_max":210,"ha":210,"o":"m 180 640 l 30 640 l 30 700 l 180 700 z m 180 560 l 30 560 l 30 620 l 180 620 z m 180 480 l 105 480 l 105 540 l 180 540 z"},"a":{"x_min":0,"x_max":750,"ha":750,"o":"m 494 640 l 256 640 l 280 700 l 470 700 z m 526 560 l 224 560 l 248 620 l 502 620 z m 590 400 l 420 400 l 396 460 l 566 460 z m 558 480 l 388 480 l 375 513 l 362 480 l 192 480 l 216 540 l 534 540 z m 622 320 l 452 320 l 428 380 l 598 380 z m 718 80 l 548 80 l 524 140 l 694 140 z m 354 460 l 330 400 l 160 400 l 184 460 z m 750 0 l 580 0 l 556 60 l 726 60 z m 654 240 l 96 240 l 120 300 l 630 300 z m 322 380 l 298 320 l 128 320 l 152 380 z m 686 160 l 64 160 l 88 220 l 662 220 z m 226 140 l 202 80 l 32 80 l 56 140 z m 194 60 l 170 0 l 0 0 l 24 60 z"},"L":{"x_min":0,"x_max":610,"ha":610,"o":"m 180 640 l 30 640 l 30 700 l 180 700 z m 180 560 l 30 560 l 30 620 l 180 620 z m 180 480 l 30 480 l 30 540 l 180 540 z m 180 400 l 30 400 l 30 460 l 180 460 z m 180 320 l 30 320 l 30 380 l 180 380 z m 580 80 l 32 80 q 30 90 30 100 l 30 140 l 580 140 z m 180 240 l 30 240 l 30 300 l 180 300 z m 580 0 l 130 0 q 64 0 38 60 l 580 60 z m 180 160 l 30 160 l 30 220 l 180 220 z"},"3":{"x_min":0,"x_max":610,"ha":610,"o":"m 580 500 q 580 490 578 480 l 430 480 l 430 540 l 580 540 z m 572 640 l 30 640 l 30 700 l 480 700 q 546 700 572 640 z m 580 560 l 30 560 l 30 620 l 578 620 q 580 610 580 600 z m 572 460 q 546 400 480 400 l 230 400 l 230 460 z m 580 240 l 430 240 l 430 300 l 578 300 q 580 290 580 280 z m 572 320 l 230 320 l 230 380 l 480 380 q 546 380 572 320 z m 580 160 l 430 160 l 430 220 l 580 220 z m 580 100 q 580 90 578 80 l 30 80 l 30 140 l 580 140 z m 572 60 q 546 0 480 0 l 30 0 l 30 60 z"},";":{"x_min":0,"x_max":210,"ha":210,"o":"m 180 400 l 30 400 l 30 460 l 180 460 z m 180 320 l 30 320 l 30 380 l 180 380 z m 180 80 l 30 80 l 30 140 l 180 140 z m 180 0 l 30 0 l 30 60 l 180 60 z m 180 -80 l 105 -80 l 105 -20 l 180 -20 z"},"J":{"x_min":0,"x_max":660,"ha":660,"o":"m 630 640 l 480 640 l 480 700 l 630 700 z m 630 560 l 480 560 l 480 620 l 630 620 z m 630 480 l 480 480 l 480 540 l 630 540 z m 630 400 l 480 400 l 480 460 l 630 460 z m 630 320 l 480 320 l 480 380 l 630 380 z m 630 240 l 480 240 l 480 300 l 630 300 z m 630 160 l 480 160 l 480 220 l 630 220 z m 630 100 q 630 90 628 80 l 32 80 q 30 90 30 100 l 30 140 l 630 140 z m 180 240 l 30 240 l 30 300 l 180 300 z m 622 60 q 596 0 530 0 l 130 0 q 64 0 38 60 z m 180 160 l 30 160 l 30 220 l 180 220 z"},"V":{"x_min":0,"x_max":750,"ha":750,"o":"m 750 700 l 726 640 l 556 640 l 580 700 z m 718 620 l 694 560 l 524 560 l 548 620 z m 686 540 l 662 480 l 492 480 l 516 540 z m 654 460 l 630 400 l 460 400 l 484 460 z m 622 380 l 598 320 l 428 320 l 452 380 z m 194 640 l 24 640 l 0 700 l 170 700 z m 590 300 l 566 240 l 396 240 l 420 300 z m 226 560 l 56 560 l 32 620 l 202 620 z m 258 480 l 88 480 l 64 540 l 234 540 z m 290 400 l 120 400 l 96 460 l 266 460 z m 322 320 l 152 320 l 128 380 l 298 380 z m 558 220 l 534 160 l 216 160 l 192 220 l 362 220 l 375 187 l 388 220 z m 354 240 l 184 240 l 160 300 l 330 300 z m 526 140 l 502 80 l 248 80 l 224 140 z m 494 60 l 470 0 l 280 0 l 256 60 z"},"\"":{"x_min":0,"x_max":400,"ha":400,"o":"m 370 640 l 220 640 l 220 700 l 370 700 z m 370 560 l 220 560 l 220 620 l 370 620 z m 370 480 l 295 480 l 295 540 l 370 540 z m 180 640 l 30 640 l 30 700 l 180 700 z m 180 560 l 30 560 l 30 620 l 180 620 z m 180 480 l 105 480 l 105 540 l 180 540 z"},"7":{"x_min":0,"x_max":610,"ha":610,"o":"m 580 480 l 430 480 l 430 540 l 580 540 z m 572 640 l 30 640 l 30 700 l 480 700 q 546 700 572 640 z m 580 400 l 430 400 l 430 460 l 580 460 z m 580 560 l 30 560 l 30 620 l 578 620 q 580 610 580 600 z m 580 320 l 430 320 l 430 380 l 580 380 z m 580 240 l 430 240 l 430 300 l 580 300 z m 580 160 l 430 160 l 430 220 l 580 220 z m 580 80 l 430 80 l 430 140 l 580 140 z m 580 0 l 430 0 l 430 60 l 580 60 z"},"S":{"x_min":0,"x_max":660,"ha":660,"o":"m 630 640 l 38 640 q 64 700 130 700 l 630 700 z m 630 560 l 30 560 l 30 600 q 30 610 32 620 l 630 620 z m 630 240 l 480 240 l 480 300 l 630 300 z m 622 400 l 32 400 q 30 410 30 420 l 30 460 l 530 460 q 596 460 622 400 z m 630 160 l 480 160 l 480 220 l 630 220 z m 630 320 l 130 320 q 64 320 38 380 l 628 380 q 630 370 630 360 z m 180 480 l 30 480 l 30 540 l 180 540 z m 630 100 q 630 90 628 80 l 30 80 l 30 140 l 630 140 z m 622 60 q 596 0 530 0 l 30 0 l 30 60 z"},"Z":{"x_min":0,"x_max":660,"ha":660,"o":"m 630 640 l 30 640 l 30 700 l 630 700 z m 612 540 l 558 480 l 338 480 l 392 540 z m 630 560 l 30 560 l 30 620 l 630 620 z m 540 460 l 485 400 l 265 400 l 320 460 z m 467 380 l 413 320 l 193 320 l 247 380 z m 395 300 l 340 240 l 120 240 l 175 300 z m 630 80 l 30 80 l 30 140 l 630 140 z m 322 220 l 268 160 l 48 160 l 102 220 z m 630 0 l 30 0 l 30 60 l 630 60 z"},"x":{"x_min":0,"x_max":760,"ha":760,"o":"m 730 700 l 686 640 l 496 640 l 540 700 z m 672 620 l 628 560 l 438 560 l 482 620 z m 613 540 l 570 480 l 190 480 l 147 540 l 337 540 l 380 480 l 423 540 z m 264 640 l 74 640 l 30 700 l 220 700 z m 555 460 l 511 400 l 249 400 l 205 460 z m 322 560 l 132 560 l 88 620 l 278 620 z m 497 320 l 263 320 l 285 350 l 263 380 l 497 380 l 475 350 z m 672 80 l 482 80 l 438 140 l 628 140 z m 555 240 l 205 240 l 249 300 l 511 300 z m 730 0 l 540 0 l 496 60 l 686 60 z m 613 160 l 423 160 l 380 220 l 337 160 l 147 160 l 190 220 l 570 220 z m 322 140 l 278 80 l 88 80 l 132 140 z m 264 60 l 220 0 l 30 0 l 74 60 z"},"&":{"x_min":0,"x_max":666,"ha":666,"o":"m 475 84 q 432 36 380 12 q 329 -12 270 -12 q 160 -12 95 62 q 43 123 43 197 q 43 264 86 318 q 128 371 213 411 q 165 467 149 502 q 133 536 133 568 q 133 633 184 680 q 234 728 311 728 q 384 728 430 683 q 477 638 477 575 q 477 473 342 401 l 470 237 q 492 280 504 337 l 596 317 q 572 224 532 163 q 582 98 644 53 l 585 -17 q 532 18 475 84 z m 296 458 q 354 491 370 516 q 387 542 387 573 q 387 609 364 632 q 341 656 306 656 q 271 656 247 633 q 223 610 223 577 q 223 560 232 542 q 240 523 257 503 z m 420 154 l 259 354 q 188 311 163 274 q 138 238 138 203 q 138 159 172 112 q 207 65 271 65 q 310 65 352 90 q 395 115 420 154 z"},"_":{"x_min":0,"x_max":500,"ha":500,"o":"m -5 45 l 507 45 l 507 -5 l -5 -5 z"},"v":{"x_min":0,"x_max":750,"ha":750,"o":"m 750 700 l 726 640 l 556 640 l 580 700 z m 718 620 l 694 560 l 524 560 l 548 620 z m 686 540 l 662 480 l 492 480 l 516 540 z m 654 460 l 630 400 l 460 400 l 484 460 z m 622 380 l 598 320 l 428 320 l 452 380 z m 194 640 l 24 640 l 0 700 l 170 700 z m 590 300 l 566 240 l 396 240 l 420 300 z m 226 560 l 56 560 l 32 620 l 202 620 z m 258 480 l 88 480 l 64 540 l 234 540 z m 290 400 l 120 400 l 96 460 l 266 460 z m 322 320 l 152 320 l 128 380 l 298 380 z m 558 220 l 534 160 l 216 160 l 192 220 l 362 220 l 375 187 l 388 220 z m 354 240 l 184 240 l 160 300 l 330 300 z m 526 140 l 502 80 l 248 80 l 224 140 z m 494 60 l 470 0 l 280 0 l 256 60 z"},"O":{"x_min":0,"x_max":660,"ha":660,"o":"m 630 480 l 480 480 l 480 540 l 630 540 z m 622 640 l 38 640 q 64 700 130 700 l 530 700 q 596 700 622 640 z m 630 400 l 480 400 l 480 460 l 630 460 z m 630 560 l 30 560 l 30 600 q 30 610 32 620 l 628 620 q 630 610 630 600 z m 630 320 l 480 320 l 480 380 l 630 380 z m 630 240 l 480 240 l 480 300 l 630 300 z m 630 160 l 480 160 l 480 220 l 630 220 z m 180 480 l 30 480 l 30 540 l 180 540 z m 180 400 l 30 400 l 30 460 l 180 460 z m 180 320 l 30 320 l 30 380 l 180 380 z m 630 100 q 630 90 628 80 l 32 80 q 30 90 30 100 l 30 140 l 630 140 z m 180 240 l 30 240 l 30 300 l 180 300 z m 622 60 q 596 0 530 0 l 130 0 q 64 0 38 60 z m 180 160 l 30 160 l 30 220 l 180 220 z"},"C":{"x_min":0,"x_max":610,"ha":610,"o":"m 580 640 l 38 640 q 64 700 130 700 l 580 700 z m 580 560 l 30 560 l 30 600 q 30 610 32 620 l 580 620 z m 180 480 l 30 480 l 30 540 l 180 540 z m 180 400 l 30 400 l 30 460 l 180 460 z m 180 320 l 30 320 l 30 380 l 180 380 z m 580 80 l 32 80 q 30 90 30 100 l 30 140 l 580 140 z m 180 240 l 30 240 l 30 300 l 180 300 z m 580 0 l 130 0 q 64 0 38 60 l 580 60 z m 180 160 l 30 160 l 30 220 l 180 220 z"},"W":{"x_min":0,"x_max":1050,"ha":1050,"o":"m 1050 700 l 1026 640 l 856 640 l 880 700 z m 1018 620 l 994 560 l 824 560 l 848 620 z m 986 540 l 962 480 l 792 480 l 816 540 z m 750 700 l 726 640 l 556 640 l 580 700 z m 954 460 l 930 400 l 760 400 l 784 460 z m 922 380 l 898 320 l 728 320 l 752 380 z m 718 620 l 694 560 l 356 560 l 332 620 l 502 620 l 525 563 l 548 620 z m 494 640 l 324 640 l 300 700 l 470 700 z m 890 300 l 866 240 l 696 240 l 720 300 z m 686 540 l 662 480 l 388 480 l 364 540 z m 654 460 l 630 400 l 420 400 l 396 460 z m 622 320 l 428 320 l 440 350 l 428 380 l 622 380 l 610 350 z m 654 240 l 396 240 l 420 300 l 630 300 z m 194 640 l 24 640 l 0 700 l 170 700 z m 226 560 l 56 560 l 32 620 l 202 620 z m 858 220 l 834 160 l 216 160 l 192 220 l 362 220 l 375 187 l 388 220 l 662 220 l 675 187 l 688 220 z m 794 60 l 770 0 l 580 0 l 556 60 z m 258 480 l 88 480 l 64 540 l 234 540 z m 826 140 l 802 80 l 548 80 l 525 138 l 502 80 l 248 80 l 224 140 z m 290 400 l 120 400 l 96 460 l 266 460 z m 322 320 l 152 320 l 128 380 l 298 380 z m 354 240 l 184 240 l 160 300 l 330 300 z m 494 60 l 470 0 l 280 0 l 256 60 z"},"A":{"x_min":0,"x_max":750,"ha":750,"o":"m 494 640 l 256 640 l 280 700 l 470 700 z m 526 560 l 224 560 l 248 620 l 502 620 z m 590 400 l 420 400 l 396 460 l 566 460 z m 558 480 l 388 480 l 375 513 l 362 480 l 192 480 l 216 540 l 534 540 z m 622 320 l 452 320 l 428 380 l 598 380 z m 718 80 l 548 80 l 524 140 l 694 140 z m 354 460 l 330 400 l 160 400 l 184 460 z m 750 0 l 580 0 l 556 60 l 726 60 z m 654 240 l 96 240 l 120 300 l 630 300 z m 322 380 l 298 320 l 128 320 l 152 380 z m 686 160 l 64 160 l 88 220 l 662 220 z m 226 140 l 202 80 l 32 80 l 56 140 z m 194 60 l 170 0 l 0 0 l 24 60 z"},"f":{"x_min":0,"x_max":610,"ha":610,"o":"m 580 640 l 38 640 q 64 700 130 700 l 580 700 z m 580 560 l 30 560 l 30 600 q 30 610 32 620 l 580 620 z m 580 400 l 30 400 l 30 460 l 580 460 z m 580 320 l 30 320 l 30 380 l 580 380 z m 180 480 l 30 480 l 30 540 l 180 540 z m 180 240 l 30 240 l 30 300 l 180 300 z m 180 160 l 30 160 l 30 220 l 180 220 z m 180 80 l 30 80 l 30 140 l 180 140 z m 180 0 l 30 0 l 30 60 l 180 60 z"},"Q":{"x_min":0,"x_max":760,"ha":760,"o":"m 630 480 l 480 480 l 480 540 l 630 540 z m 622 640 l 38 640 q 64 700 130 700 l 530 700 q 596 700 622 640 z m 630 400 l 480 400 l 480 460 l 630 460 z m 630 560 l 30 560 l 30 600 q 30 610 32 620 l 628 620 q 630 610 630 600 z m 630 320 l 480 320 l 480 380 l 630 380 z m 630 240 l 480 240 l 480 300 l 630 300 z m 630 160 l 480 160 l 480 220 l 630 220 z m 180 480 l 30 480 l 30 540 l 180 540 z m 180 400 l 30 400 l 30 460 l 180 460 z m 730 80 l 32 80 q 30 90 30 100 l 30 140 l 730 140 z m 180 320 l 30 320 l 30 380 l 180 380 z m 730 0 l 130 0 q 64 0 38 60 l 730 60 z m 180 240 l 30 240 l 30 300 l 180 300 z m 180 160 l 30 160 l 30 220 l 180 220 z"},"w":{"x_min":0,"x_max":1050,"ha":1050,"o":"m 1050 700 l 1026 640 l 856 640 l 880 700 z m 1018 620 l 994 560 l 824 560 l 848 620 z m 986 540 l 962 480 l 792 480 l 816 540 z m 750 700 l 726 640 l 556 640 l 580 700 z m 954 460 l 930 400 l 760 400 l 784 460 z m 922 380 l 898 320 l 728 320 l 752 380 z m 718 620 l 694 560 l 356 560 l 332 620 l 502 620 l 525 563 l 548 620 z m 494 640 l 324 640 l 300 700 l 470 700 z m 890 300 l 866 240 l 696 240 l 720 300 z m 686 540 l 662 480 l 388 480 l 364 540 z m 654 460 l 630 400 l 420 400 l 396 460 z m 622 320 l 428 320 l 440 350 l 428 380 l 622 380 l 610 350 z m 654 240 l 396 240 l 420 300 l 630 300 z m 194 640 l 24 640 l 0 700 l 170 700 z m 226 560 l 56 560 l 32 620 l 202 620 z m 858 220 l 834 160 l 216 160 l 192 220 l 362 220 l 375 187 l 388 220 l 662 220 l 675 187 l 688 220 z m 794 60 l 770 0 l 580 0 l 556 60 z m 258 480 l 88 480 l 64 540 l 234 540 z m 826 140 l 802 80 l 548 80 l 525 138 l 502 80 l 248 80 l 224 140 z m 290 400 l 120 400 l 96 460 l 266 460 z m 322 320 l 152 320 l 128 380 l 298 380 z m 354 240 l 184 240 l 160 300 l 330 300 z m 494 60 l 470 0 l 280 0 l 256 60 z"},"-":{"x_min":0,"x_max":333,"ha":333,"o":"m 32 215 l 32 303 l 302 303 l 302 215 z"},"E":{"x_min":0,"x_max":610,"ha":610,"o":"m 580 640 l 38 640 q 64 700 130 700 l 580 700 z m 580 560 l 30 560 l 30 600 q 30 610 32 620 l 580 620 z m 580 400 l 30 400 l 30 460 l 580 460 z m 580 320 l 30 320 l 30 380 l 580 380 z m 180 480 l 30 480 l 30 540 l 180 540 z m 580 80 l 32 80 q 30 90 30 100 l 30 140 l 580 140 z m 180 240 l 30 240 l 30 300 l 180 300 z m 580 0 l 130 0 q 64 0 38 60 l 580 60 z m 180 160 l 30 160 l 30 220 l 180 220 z"},"s":{"x_min":0,"x_max":660,"ha":660,"o":"m 630 640 l 38 640 q 64 700 130 700 l 630 700 z m 630 560 l 30 560 l 30 600 q 30 610 32 620 l 630 620 z m 630 240 l 480 240 l 480 300 l 630 300 z m 622 400 l 32 400 q 30 410 30 420 l 30 460 l 530 460 q 596 460 622 400 z m 630 160 l 480 160 l 480 220 l 630 220 z m 630 320 l 130 320 q 64 320 38 380 l 628 380 q 630 370 630 360 z m 180 480 l 30 480 l 30 540 l 180 540 z m 630 100 q 630 90 628 80 l 30 80 l 30 140 l 630 140 z m 622 60 q 596 0 530 0 l 30 0 l 30 60 z"},"l":{"x_min":0,"x_max":610,"ha":610,"o":"m 180 640 l 30 640 l 30 700 l 180 700 z m 180 560 l 30 560 l 30 620 l 180 620 z m 180 480 l 30 480 l 30 540 l 180 540 z m 180 400 l 30 400 l 30 460 l 180 460 z m 180 320 l 30 320 l 30 380 l 180 380 z m 580 80 l 32 80 q 30 90 30 100 l 30 140 l 580 140 z m 180 240 l 30 240 l 30 300 l 180 300 z m 580 0 l 130 0 q 64 0 38 60 l 580 60 z m 180 160 l 30 160 l 30 220 l 180 220 z"},"8":{"x_min":0,"x_max":610,"ha":610,"o":"m 580 500 q 580 490 578 480 l 430 480 l 430 540 l 580 540 z m 572 640 l 38 640 q 64 700 130 700 l 480 700 q 546 700 572 640 z m 580 560 l 30 560 l 30 600 q 30 610 32 620 l 578 620 q 580 610 580 600 z m 580 240 l 430 240 l 430 300 l 578 300 q 580 290 580 280 z m 572 460 q 546 400 480 400 l 130 400 q 64 400 38 460 z m 580 160 l 430 160 l 430 220 l 580 220 z m 572 320 l 38 320 q 64 380 130 380 l 480 380 q 546 380 572 320 z m 180 480 l 32 480 q 30 490 30 500 l 30 540 l 180 540 z m 580 100 q 580 90 578 80 l 32 80 q 30 90 30 100 l 30 140 l 580 140 z m 180 240 l 30 240 l 30 280 q 30 290 32 300 l 180 300 z m 572 60 q 546 0 480 0 l 130 0 q 64 0 38 60 z m 180 160 l 30 160 l 30 220 l 180 220 z"},"e":{"x_min":0,"x_max":610,"ha":610,"o":"m 580 640 l 38 640 q 64 700 130 700 l 580 700 z m 580 560 l 30 560 l 30 600 q 30 610 32 620 l 580 620 z m 580 400 l 30 400 l 30 460 l 580 460 z m 580 320 l 30 320 l 30 380 l 580 380 z m 180 480 l 30 480 l 30 540 l 180 540 z m 580 80 l 32 80 q 30 90 30 100 l 30 140 l 580 140 z m 180 240 l 30 240 l 30 300 l 180 300 z m 580 0 l 130 0 q 64 0 38 60 l 580 60 z m 180 160 l 30 160 l 30 220 l 180 220 z"},"b":{"x_min":0,"x_max":660,"ha":660,"o":"m 630 500 q 630 490 628 480 l 480 480 l 480 540 l 630 540 z m 622 640 l 30 640 l 30 700 l 530 700 q 596 700 622 640 z m 630 560 l 30 560 l 30 620 l 628 620 q 630 610 630 600 z m 630 240 l 480 240 l 480 300 l 628 300 q 630 290 630 280 z m 622 460 q 596 400 530 400 l 30 400 l 30 460 z m 630 160 l 480 160 l 480 220 l 630 220 z m 622 320 l 30 320 l 30 380 l 530 380 q 596 380 622 320 z m 180 480 l 30 480 l 30 540 l 180 540 z m 630 100 q 630 90 628 80 l 30 80 l 30 140 l 630 140 z m 180 240 l 30 240 l 30 300 l 180 300 z m 622 60 q 596 0 530 0 l 30 0 l 30 60 z m 180 160 l 30 160 l 30 220 l 180 220 z"},"m":{"x_min":0,"x_max":820,"ha":820,"o":"m 790 640 l 611 640 l 640 700 l 790 700 z m 790 560 l 572 560 l 601 620 l 790 620 z m 790 480 l 533 480 l 562 540 l 790 540 z m 790 400 l 494 400 l 523 460 l 790 460 z m 790 240 l 640 240 l 640 300 l 790 300 z m 790 320 l 640 320 l 640 350 l 625 320 l 455 320 l 485 380 l 790 380 z m 790 160 l 640 160 l 640 220 l 790 220 z m 790 80 l 640 80 l 640 140 l 790 140 z m 209 640 l 30 640 l 30 700 l 180 700 z m 616 300 l 587 240 l 417 240 l 446 300 z m 790 0 l 640 0 l 640 60 l 790 60 z m 248 560 l 30 560 l 30 620 l 219 620 z m 287 480 l 30 480 l 30 540 l 258 540 z m 326 400 l 30 400 l 30 460 l 297 460 z m 577 220 l 548 160 l 272 160 l 243 220 z m 403 240 l 233 240 l 204 300 l 374 300 z m 365 320 l 195 320 l 180 350 l 180 320 l 30 320 l 30 380 l 335 380 z m 538 140 l 509 80 l 311 80 l 282 140 z m 499 60 l 470 0 l 350 0 l 321 60 z m 180 240 l 30 240 l 30 300 l 180 300 z m 180 160 l 30 160 l 30 220 l 180 220 z m 180 80 l 30 80 l 30 140 l 180 140 z m 180 0 l 30 0 l 30 60 l 180 60 z"},",":{"x_min":0,"x_max":210,"ha":210,"o":"m 180 80 l 30 80 l 30 140 l 180 140 z m 180 0 l 30 0 l 30 60 l 180 60 z m 180 -80 l 105 -80 l 105 -20 l 180 -20 z"},"n":{"x_min":0,"x_max":660,"ha":660,"o":"m 630 640 l 480 640 l 480 700 l 630 700 z m 630 560 l 480 560 l 480 620 l 630 620 z m 630 480 l 480 480 l 480 540 l 630 540 z m 630 400 l 480 400 l 480 460 l 630 460 z m 630 320 l 480 320 l 480 380 l 630 380 z m 223 640 l 30 640 l 30 700 l 180 700 z m 280 560 l 30 560 l 30 620 l 237 620 z m 630 240 l 309 240 l 266 300 l 466 300 l 480 280 l 480 300 l 630 300 z m 337 480 l 30 480 l 30 540 l 294 540 z m 451 320 l 251 320 l 209 380 l 409 380 z m 630 160 l 366 160 l 323 220 l 630 220 z m 394 400 l 194 400 l 180 420 l 180 400 l 30 400 l 30 460 l 351 460 z m 630 80 l 423 80 l 380 140 l 630 140 z m 630 0 l 480 0 l 437 60 l 630 60 z m 180 320 l 30 320 l 30 380 l 180 380 z m 180 240 l 30 240 l 30 300 l 180 300 z m 180 160 l 30 160 l 30 220 l 180 220 z m 180 80 l 30 80 l 30 140 l 180 140 z m 180 0 l 30 0 l 30 60 l 180 60 z"},"h":{"x_min":0,"x_max":660,"ha":660,"o":"m 630 640 l 480 640 l 480 700 l 630 700 z m 630 560 l 480 560 l 480 620 l 630 620 z m 630 480 l 480 480 l 480 540 l 630 540 z m 630 240 l 480 240 l 480 300 l 630 300 z m 180 640 l 30 640 l 30 700 l 180 700 z m 630 400 l 30 400 l 30 460 l 630 460 z m 630 160 l 480 160 l 480 220 l 630 220 z m 180 560 l 30 560 l 30 620 l 180 620 z m 630 320 l 30 320 l 30 380 l 630 380 z m 630 80 l 480 80 l 480 140 l 630 140 z m 180 480 l 30 480 l 30 540 l 180 540 z m 630 0 l 480 0 l 480 60 l 630 60 z m 180 240 l 30 240 l 30 300 l 180 300 z m 180 160 l 30 160 l 30 220 l 180 220 z m 180 80 l 30 80 l 30 140 l 180 140 z m 180 0 l 30 0 l 30 60 l 180 60 z"},"z":{"x_min":0,"x_max":660,"ha":660,"o":"m 630 640 l 30 640 l 30 700 l 630 700 z m 612 540 l 558 480 l 338 480 l 392 540 z m 630 560 l 30 560 l 30 620 l 630 620 z m 540 460 l 485 400 l 265 400 l 320 460 z m 467 380 l 413 320 l 193 320 l 247 380 z m 395 300 l 340 240 l 120 240 l 175 300 z m 630 80 l 30 80 l 30 140 l 630 140 z m 322 220 l 268 160 l 48 160 l 102 220 z m 630 0 l 30 0 l 30 60 l 630 60 z"},"B":{"x_min":0,"x_max":660,"ha":660,"o":"m 630 500 q 630 490 628 480 l 480 480 l 480 540 l 630 540 z m 622 640 l 30 640 l 30 700 l 530 700 q 596 700 622 640 z m 630 560 l 30 560 l 30 620 l 628 620 q 630 610 630 600 z m 630 240 l 480 240 l 480 300 l 628 300 q 630 290 630 280 z m 622 460 q 596 400 530 400 l 30 400 l 30 460 z m 630 160 l 480 160 l 480 220 l 630 220 z m 622 320 l 30 320 l 30 380 l 530 380 q 596 380 622 320 z m 180 480 l 30 480 l 30 540 l 180 540 z m 630 100 q 630 90 628 80 l 30 80 l 30 140 l 630 140 z m 180 240 l 30 240 l 30 300 l 180 300 z m 622 60 q 596 0 530 0 l 30 0 l 30 60 z m 180 160 l 30 160 l 30 220 l 180 220 z"},"K":{"x_min":0,"x_max":720,"ha":720,"o":"m 690 700 l 646 640 l 456 640 l 500 700 z m 632 620 l 588 560 l 398 560 l 442 620 z m 573 540 l 530 480 l 340 480 l 383 540 z m 515 460 l 471 400 l 281 400 l 325 460 z m 180 640 l 30 640 l 30 700 l 180 700 z m 180 560 l 30 560 l 30 620 l 180 620 z m 457 320 l 223 320 l 267 380 l 457 380 l 435 350 z m 632 80 l 442 80 l 398 140 l 588 140 z m 180 480 l 30 480 l 30 540 l 180 540 z m 690 0 l 500 0 l 456 60 l 646 60 z m 515 240 l 30 240 l 30 300 l 180 300 l 180 261 l 209 300 l 471 300 z m 180 400 l 30 400 l 30 460 l 180 460 z m 573 160 l 383 160 l 340 220 l 297 160 l 30 160 l 30 220 l 530 220 z m 180 320 l 30 320 l 30 380 l 180 380 z m 282 140 l 238 80 l 30 80 l 30 140 z m 224 60 l 180 0 l 30 0 l 30 60 z"},"R":{"x_min":0,"x_max":660,"ha":660,"o":"m 630 500 q 630 490 628 480 l 480 480 l 480 540 l 630 540 z m 622 640 l 30 640 l 30 700 l 530 700 q 596 700 622 640 z m 630 560 l 30 560 l 30 620 l 628 620 q 630 610 630 600 z m 630 240 l 480 240 l 480 300 l 628 300 q 630 290 630 280 z m 622 460 q 596 400 530 400 l 30 400 l 30 460 z m 630 160 l 480 160 l 480 220 l 630 220 z m 622 320 l 30 320 l 30 380 l 530 380 q 596 380 622 320 z m 630 80 l 480 80 l 480 140 l 630 140 z m 180 480 l 30 480 l 30 540 l 180 540 z m 630 0 l 480 0 l 480 60 l 630 60 z m 180 240 l 30 240 l 30 300 l 180 300 z m 180 160 l 30 160 l 30 220 l 180 220 z m 180 80 l 30 80 l 30 140 l 180 140 z m 180 0 l 30 0 l 30 60 l 180 60 z"},"T":{"x_min":0,"x_max":660,"ha":660,"o":"m 630 640 l 30 640 l 30 700 l 630 700 z m 630 560 l 30 560 l 30 620 l 630 620 z m 415 480 l 265 480 l 265 540 l 415 540 z m 415 400 l 265 400 l 265 460 l 415 460 z m 415 320 l 265 320 l 265 380 l 415 380 z m 415 240 l 265 240 l 265 300 l 415 300 z m 415 160 l 265 160 l 265 220 l 415 220 z m 415 80 l 265 80 l 265 140 l 415 140 z m 415 0 l 265 0 l 265 60 l 415 60 z"},"P":{"x_min":0,"x_max":660,"ha":660,"o":"m 630 480 l 480 480 l 480 540 l 630 540 z m 622 640 l 30 640 l 30 700 l 530 700 q 596 700 622 640 z m 630 560 l 30 560 l 30 620 l 628 620 q 630 610 630 600 z m 630 420 q 630 410 628 400 l 30 400 l 30 460 l 630 460 z m 622 380 q 596 320 530 320 l 30 320 l 30 380 z m 180 480 l 30 480 l 30 540 l 180 540 z m 180 240 l 30 240 l 30 300 l 180 300 z m 180 160 l 30 160 l 30 220 l 180 220 z m 180 80 l 30 80 l 30 140 l 180 140 z m 180 0 l 30 0 l 30 60 l 180 60 z"},"t":{"x_min":0,"x_max":660,"ha":660,"o":"m 630 640 l 30 640 l 30 700 l 630 700 z m 630 560 l 30 560 l 30 620 l 630 620 z m 415 480 l 265 480 l 265 540 l 415 540 z m 415 400 l 265 400 l 265 460 l 415 460 z m 415 320 l 265 320 l 265 380 l 415 380 z m 415 240 l 265 240 l 265 300 l 415 300 z m 415 160 l 265 160 l 265 220 l 415 220 z m 415 80 l 265 80 l 265 140 l 415 140 z m 415 0 l 265 0 l 265 60 l 415 60 z"},"M":{"x_min":0,"x_max":820,"ha":820,"o":"m 790 640 l 611 640 l 640 700 l 790 700 z m 790 560 l 572 560 l 601 620 l 790 620 z m 790 480 l 533 480 l 562 540 l 790 540 z m 790 400 l 494 400 l 523 460 l 790 460 z m 790 240 l 640 240 l 640 300 l 790 300 z m 790 320 l 640 320 l 640 350 l 625 320 l 455 320 l 485 380 l 790 380 z m 790 160 l 640 160 l 640 220 l 790 220 z m 790 80 l 640 80 l 640 140 l 790 140 z m 209 640 l 30 640 l 30 700 l 180 700 z m 616 300 l 587 240 l 417 240 l 446 300 z m 790 0 l 640 0 l 640 60 l 790 60 z m 248 560 l 30 560 l 30 620 l 219 620 z m 287 480 l 30 480 l 30 540 l 258 540 z m 326 400 l 30 400 l 30 460 l 297 460 z m 577 220 l 548 160 l 272 160 l 243 220 z m 403 240 l 233 240 l 204 300 l 374 300 z m 365 320 l 195 320 l 180 350 l 180 320 l 30 320 l 30 380 l 335 380 z m 538 140 l 509 80 l 311 80 l 282 140 z m 499 60 l 470 0 l 350 0 l 321 60 z m 180 240 l 30 240 l 30 300 l 180 300 z m 180 160 l 30 160 l 30 220 l 180 220 z m 180 80 l 30 80 l 30 140 l 180 140 z m 180 0 l 30 0 l 30 60 l 180 60 z"},"g":{"x_min":0,"x_max":660,"ha":660,"o":"m 630 640 l 38 640 q 64 700 130 700 l 630 700 z m 630 560 l 30 560 l 30 600 q 30 610 32 620 l 630 620 z m 630 400 l 280 400 l 280 460 l 630 460 z m 630 240 l 480 240 l 480 300 l 630 300 z m 630 320 l 280 320 l 280 380 l 630 380 z m 630 160 l 480 160 l 480 220 l 630 220 z m 180 480 l 30 480 l 30 540 l 180 540 z m 180 400 l 30 400 l 30 460 l 180 460 z m 180 320 l 30 320 l 30 380 l 180 380 z m 630 80 l 32 80 q 30 90 30 100 l 30 140 l 630 140 z m 180 240 l 30 240 l 30 300 l 180 300 z m 630 0 l 130 0 q 64 0 38 60 l 630 60 z m 180 160 l 30 160 l 30 220 l 180 220 z"},"j":{"x_min":0,"x_max":660,"ha":660,"o":"m 630 640 l 480 640 l 480 700 l 630 700 z m 630 560 l 480 560 l 480 620 l 630 620 z m 630 480 l 480 480 l 480 540 l 630 540 z m 630 400 l 480 400 l 480 460 l 630 460 z m 630 320 l 480 320 l 480 380 l 630 380 z m 630 240 l 480 240 l 480 300 l 630 300 z m 630 160 l 480 160 l 480 220 l 630 220 z m 630 100 q 630 90 628 80 l 32 80 q 30 90 30 100 l 30 140 l 630 140 z m 180 240 l 30 240 l 30 300 l 180 300 z m 622 60 q 596 0 530 0 l 130 0 q 64 0 38 60 z m 180 160 l 30 160 l 30 220 l 180 220 z"},"i":{"x_min":0,"x_max":210,"ha":210,"o":"m 180 640 l 30 640 l 30 700 l 180 700 z m 180 560 l 30 560 l 30 620 l 180 620 z m 180 480 l 30 480 l 30 540 l 180 540 z m 180 400 l 30 400 l 30 460 l 180 460 z m 180 320 l 30 320 l 30 380 l 180 380 z m 180 240 l 30 240 l 30 300 l 180 300 z m 180 160 l 30 160 l 30 220 l 180 220 z m 180 80 l 30 80 l 30 140 l 180 140 z m 180 0 l 30 0 l 30 60 l 180 60 z"},"y":{"x_min":0,"x_max":760,"ha":760,"o":"m 730 700 l 686 640 l 496 640 l 540 700 z m 672 620 l 628 560 l 438 560 l 482 620 z m 613 540 l 570 480 l 190 480 l 147 540 l 337 540 l 380 480 l 423 540 z m 264 640 l 74 640 l 30 700 l 220 700 z m 555 460 l 511 400 l 249 400 l 205 460 z m 322 560 l 132 560 l 88 620 l 278 620 z m 497 380 l 455 320 l 305 320 l 263 380 z m 455 240 l 305 240 l 305 300 l 455 300 z m 455 160 l 305 160 l 305 220 l 455 220 z m 455 80 l 305 80 l 305 140 l 455 140 z m 455 0 l 305 0 l 305 60 l 455 60 z"},".":{"x_min":0,"x_max":210,"ha":210,"o":"m 180 80 l 30 80 l 30 140 l 180 140 z m 180 0 l 30 0 l 30 60 l 180 60 z"},"p":{"x_min":0,"x_max":660,"ha":660,"o":"m 630 480 l 480 480 l 480 540 l 630 540 z m 622 640 l 30 640 l 30 700 l 530 700 q 596 700 622 640 z m 630 560 l 30 560 l 30 620 l 628 620 q 630 610 630 600 z m 630 420 q 630 410 628 400 l 30 400 l 30 460 l 630 460 z m 622 380 q 596 320 530 320 l 30 320 l 30 380 z m 180 480 l 30 480 l 30 540 l 180 540 z m 180 240 l 30 240 l 30 300 l 180 300 z m 180 160 l 30 160 l 30 220 l 180 220 z m 180 80 l 30 80 l 30 140 l 180 140 z m 180 0 l 30 0 l 30 60 l 180 60 z"},"X":{"x_min":0,"x_max":760,"ha":760,"o":"m 730 700 l 686 640 l 496 640 l 540 700 z m 672 620 l 628 560 l 438 560 l 482 620 z m 613 540 l 570 480 l 190 480 l 147 540 l 337 540 l 380 480 l 423 540 z m 264 640 l 74 640 l 30 700 l 220 700 z m 555 460 l 511 400 l 249 400 l 205 460 z m 322 560 l 132 560 l 88 620 l 278 620 z m 497 320 l 263 320 l 285 350 l 263 380 l 497 380 l 475 350 z m 672 80 l 482 80 l 438 140 l 628 140 z m 555 240 l 205 240 l 249 300 l 511 300 z m 730 0 l 540 0 l 496 60 l 686 60 z m 613 160 l 423 160 l 380 220 l 337 160 l 147 160 l 190 220 l 570 220 z m 322 140 l 278 80 l 88 80 l 132 140 z m 264 60 l 220 0 l 30 0 l 74 60 z"},"Y":{"x_min":0,"x_max":760,"ha":760,"o":"m 730 700 l 686 640 l 496 640 l 540 700 z m 672 620 l 628 560 l 438 560 l 482 620 z m 613 540 l 570 480 l 190 480 l 147 540 l 337 540 l 380 480 l 423 540 z m 264 640 l 74 640 l 30 700 l 220 700 z m 555 460 l 511 400 l 249 400 l 205 460 z m 322 560 l 132 560 l 88 620 l 278 620 z m 497 380 l 455 320 l 305 320 l 263 380 z m 455 240 l 305 240 l 305 300 l 455 300 z m 455 160 l 305 160 l 305 220 l 455 220 z m 455 80 l 305 80 l 305 140 l 455 140 z m 455 0 l 305 0 l 305 60 l 455 60 z"},"c":{"x_min":0,"x_max":610,"ha":610,"o":"m 580 640 l 38 640 q 64 700 130 700 l 580 700 z m 580 560 l 30 560 l 30 600 q 30 610 32 620 l 580 620 z m 180 480 l 30 480 l 30 540 l 180 540 z m 180 400 l 30 400 l 30 460 l 180 460 z m 180 320 l 30 320 l 30 380 l 180 380 z m 580 80 l 32 80 q 30 90 30 100 l 30 140 l 580 140 z m 180 240 l 30 240 l 30 300 l 180 300 z m 580 0 l 130 0 q 64 0 38 60 l 580 60 z m 180 160 l 30 160 l 30 220 l 180 220 z"},"!":{"x_min":0,"x_max":210,"ha":210,"o":"m 180 640 l 30 640 l 30 700 l 180 700 z m 180 560 l 30 560 l 30 620 l 180 620 z m 180 480 l 30 480 l 30 540 l 180 540 z m 180 400 l 30 400 l 30 460 l 180 460 z m 180 320 l 30 320 l 30 380 l 180 380 z m 180 240 l 30 240 l 30 300 l 180 300 z m 180 80 l 30 80 l 30 140 l 180 140 z m 180 0 l 30 0 l 30 60 l 180 60 z"},"6":{"x_min":0,"x_max":610,"ha":610,"o":"m 530 640 l 38 640 q 64 700 130 700 l 530 700 z m 530 560 l 30 560 l 30 600 q 30 610 32 620 l 530 620 z m 580 240 l 430 240 l 430 300 l 580 300 z m 572 400 l 30 400 l 30 460 l 480 460 q 546 460 572 400 z m 580 160 l 430 160 l 430 220 l 580 220 z m 580 320 l 30 320 l 30 380 l 578 380 q 580 370 580 360 z m 180 480 l 30 480 l 30 540 l 180 540 z m 580 100 q 580 90 578 80 l 32 80 q 30 90 30 100 l 30 140 l 580 140 z m 180 240 l 30 240 l 30 300 l 180 300 z m 572 60 q 546 0 480 0 l 130 0 q 64 0 38 60 z m 180 160 l 30 160 l 30 220 l 180 220 z"},"r":{"x_min":0,"x_max":660,"ha":660,"o":"m 630 500 q 630 490 628 480 l 480 480 l 480 540 l 630 540 z m 622 640 l 30 640 l 30 700 l 530 700 q 596 700 622 640 z m 630 560 l 30 560 l 30 620 l 628 620 q 630 610 630 600 z m 630 240 l 480 240 l 480 300 l 628 300 q 630 290 630 280 z m 622 460 q 596 400 530 400 l 30 400 l 30 460 z m 630 160 l 480 160 l 480 220 l 630 220 z m 622 320 l 30 320 l 30 380 l 530 380 q 596 380 622 320 z m 630 80 l 480 80 l 480 140 l 630 140 z m 180 480 l 30 480 l 30 540 l 180 540 z m 630 0 l 480 0 l 480 60 l 630 60 z m 180 240 l 30 240 l 30 300 l 180 300 z m 180 160 l 30 160 l 30 220 l 180 220 z m 180 80 l 30 80 l 30 140 l 180 140 z m 180 0 l 30 0 l 30 60 l 180 60 z"},"2":{"x_min":0,"x_max":610,"ha":610,"o":"m 580 480 l 430 480 l 430 540 l 580 540 z m 572 640 l 30 640 l 30 700 l 480 700 q 546 700 572 640 z m 580 560 l 30 560 l 30 620 l 578 620 q 580 610 580 600 z m 580 420 q 580 410 578 400 l 38 400 q 64 460 130 460 l 580 460 z m 572 380 q 546 320 480 320 l 30 320 l 30 360 q 30 370 32 380 z m 580 80 l 30 80 l 30 140 l 580 140 z m 180 240 l 30 240 l 30 300 l 180 300 z m 580 0 l 30 0 l 30 60 l 580 60 z m 180 160 l 30 160 l 30 220 l 180 220 z"},"9":{"x_min":0,"x_max":610,"ha":610,"o":"m 580 480 l 430 480 l 430 540 l 580 540 z m 572 640 l 38 640 q 64 700 130 700 l 480 700 q 546 700 572 640 z m 580 400 l 430 400 l 430 460 l 580 460 z m 580 560 l 30 560 l 30 600 q 30 610 32 620 l 578 620 q 580 610 580 600 z m 580 160 l 430 160 l 430 220 l 580 220 z m 580 320 l 32 320 q 30 330 30 340 l 30 380 l 580 380 z m 180 480 l 30 480 l 30 540 l 180 540 z m 580 240 l 130 240 q 64 240 38 300 l 580 300 z m 180 400 l 30 400 l 30 460 l 180 460 z m 580 100 q 580 90 578 80 l 80 80 l 80 140 l 580 140 z m 572 60 q 546 0 480 0 l 80 0 l 80 60 z"}," ":{"x_min":0,"x_max":250,"ha":250,"o":""},"I":{"x_min":0,"x_max":210,"ha":210,"o":"m 180 640 l 30 640 l 30 700 l 180 700 z m 180 560 l 30 560 l 30 620 l 180 620 z m 180 480 l 30 480 l 30 540 l 180 540 z m 180 400 l 30 400 l 30 460 l 180 460 z m 180 320 l 30 320 l 30 380 l 180 380 z m 180 240 l 30 240 l 30 300 l 180 300 z m 180 160 l 30 160 l 30 220 l 180 220 z m 180 80 l 30 80 l 30 140 l 180 140 z m 180 0 l 30 0 l 30 60 l 180 60 z"},"H":{"x_min":0,"x_max":660,"ha":660,"o":"m 630 640 l 480 640 l 480 700 l 630 700 z m 630 560 l 480 560 l 480 620 l 630 620 z m 630 480 l 480 480 l 480 540 l 630 540 z m 630 240 l 480 240 l 480 300 l 630 300 z m 180 640 l 30 640 l 30 700 l 180 700 z m 630 400 l 30 400 l 30 460 l 630 460 z m 630 160 l 480 160 l 480 220 l 630 220 z m 180 560 l 30 560 l 30 620 l 180 620 z m 630 320 l 30 320 l 30 380 l 630 380 z m 630 80 l 480 80 l 480 140 l 630 140 z m 180 480 l 30 480 l 30 540 l 180 540 z m 630 0 l 480 0 l 480 60 l 630 60 z m 180 240 l 30 240 l 30 300 l 180 300 z m 180 160 l 30 160 l 30 220 l 180 220 z m 180 80 l 30 80 l 30 140 l 180 140 z m 180 0 l 30 0 l 30 60 l 180 60 z"},"4":{"x_min":0,"x_max":610,"ha":610,"o":"m 530 640 l 380 640 l 380 700 l 530 700 z m 530 560 l 380 560 l 380 620 l 530 620 z m 530 480 l 380 480 l 380 540 l 530 540 z m 180 640 l 30 640 l 30 700 l 180 700 z m 580 400 l 30 400 l 30 460 l 580 460 z m 530 240 l 380 240 l 380 300 l 530 300 z m 180 560 l 30 560 l 30 620 l 180 620 z m 580 320 l 30 320 l 30 380 l 580 380 z m 530 160 l 380 160 l 380 220 l 530 220 z m 180 480 l 30 480 l 30 540 l 180 540 z m 530 80 l 380 80 l 380 140 l 530 140 z m 530 0 l 380 0 l 380 60 l 530 60 z"},"D":{"x_min":0,"x_max":660,"ha":660,"o":"m 630 480 l 480 480 l 480 540 l 630 540 z m 622 640 l 30 640 l 30 700 l 530 700 q 596 700 622 640 z m 630 400 l 480 400 l 480 460 l 630 460 z m 630 560 l 30 560 l 30 620 l 628 620 q 630 610 630 600 z m 630 320 l 480 320 l 480 380 l 630 380 z m 630 240 l 480 240 l 480 300 l 630 300 z m 630 160 l 480 160 l 480 220 l 630 220 z m 180 480 l 30 480 l 30 540 l 180 540 z m 180 400 l 30 400 l 30 460 l 180 460 z m 180 320 l 30 320 l 30 380 l 180 380 z m 630 100 q 630 90 628 80 l 30 80 l 30 140 l 630 140 z m 180 240 l 30 240 l 30 300 l 180 300 z m 622 60 q 596 0 530 0 l 30 0 l 30 60 z m 180 160 l 30 160 l 30 220 l 180 220 z"},"0":{"x_min":0,"x_max":610,"ha":610,"o":"m 580 480 l 430 480 l 430 540 l 580 540 z m 572 640 l 38 640 q 64 700 130 700 l 480 700 q 546 700 572 640 z m 580 400 l 430 400 l 430 460 l 580 460 z m 580 560 l 30 560 l 30 600 q 30 610 32 620 l 578 620 q 580 610 580 600 z m 580 320 l 430 320 l 430 380 l 580 380 z m 580 240 l 430 240 l 430 300 l 580 300 z m 580 160 l 430 160 l 430 220 l 580 220 z m 180 480 l 30 480 l 30 540 l 180 540 z m 180 400 l 30 400 l 30 460 l 180 460 z m 180 320 l 30 320 l 30 380 l 180 380 z m 580 100 q 580 90 578 80 l 32 80 q 30 90 30 100 l 30 140 l 580 140 z m 180 240 l 30 240 l 30 300 l 180 300 z m 572 60 q 546 0 480 0 l 130 0 q 64 0 38 60 z m 180 160 l 30 160 l 30 220 l 180 220 z"},"F":{"x_min":0,"x_max":610,"ha":610,"o":"m 580 640 l 38 640 q 64 700 130 700 l 580 700 z m 580 560 l 30 560 l 30 600 q 30 610 32 620 l 580 620 z m 580 400 l 30 400 l 30 460 l 580 460 z m 580 320 l 30 320 l 30 380 l 580 380 z m 180 480 l 30 480 l 30 540 l 180 540 z m 180 240 l 30 240 l 30 300 l 180 300 z m 180 160 l 30 160 l 30 220 l 180 220 z m 180 80 l 30 80 l 30 140 l 180 140 z m 180 0 l 30 0 l 30 60 l 180 60 z"},"`":{"x_min":0,"x_max":333,"ha":333,"o":"m 227 583 l 156 583 l 43 720 l 161 720 z"},"k":{"x_min":0,"x_max":720,"ha":720,"o":"m 690 700 l 646 640 l 456 640 l 500 700 z m 632 620 l 588 560 l 398 560 l 442 620 z m 573 540 l 530 480 l 340 480 l 383 540 z m 515 460 l 471 400 l 281 400 l 325 460 z m 180 640 l 30 640 l 30 700 l 180 700 z m 180 560 l 30 560 l 30 620 l 180 620 z m 457 320 l 223 320 l 267 380 l 457 380 l 435 350 z m 632 80 l 442 80 l 398 140 l 588 140 z m 180 480 l 30 480 l 30 540 l 180 540 z m 690 0 l 500 0 l 456 60 l 646 60 z m 515 240 l 30 240 l 30 300 l 180 300 l 180 261 l 209 300 l 471 300 z m 180 400 l 30 400 l 30 460 l 180 460 z m 573 160 l 383 160 l 340 220 l 297 160 l 30 160 l 30 220 l 530 220 z m 180 320 l 30 320 l 30 380 l 180 380 z m 282 140 l 238 80 l 30 80 l 30 140 z m 224 60 l 180 0 l 30 0 l 30 60 z"},"u":{"x_min":0,"x_max":660,"ha":660,"o":"m 630 640 l 480 640 l 480 700 l 630 700 z m 630 560 l 480 560 l 480 620 l 630 620 z m 630 480 l 480 480 l 480 540 l 630 540 z m 630 400 l 480 400 l 480 460 l 630 460 z m 630 320 l 480 320 l 480 380 l 630 380 z m 630 240 l 480 240 l 480 300 l 630 300 z m 180 640 l 30 640 l 30 700 l 180 700 z m 630 160 l 480 160 l 480 220 l 630 220 z m 180 560 l 30 560 l 30 620 l 180 620 z m 180 480 l 30 480 l 30 540 l 180 540 z m 180 400 l 30 400 l 30 460 l 180 460 z m 180 320 l 30 320 l 30 380 l 180 380 z m 630 100 q 630 90 628 80 l 32 80 q 30 90 30 100 l 30 140 l 630 140 z m 180 240 l 30 240 l 30 300 l 180 300 z m 622 60 q 596 0 530 0 l 130 0 q 64 0 38 60 z m 180 160 l 30 160 l 30 220 l 180 220 z"},"U":{"x_min":0,"x_max":660,"ha":660,"o":"m 630 640 l 480 640 l 480 700 l 630 700 z m 630 560 l 480 560 l 480 620 l 630 620 z m 630 480 l 480 480 l 480 540 l 630 540 z m 630 400 l 480 400 l 480 460 l 630 460 z m 630 320 l 480 320 l 480 380 l 630 380 z m 630 240 l 480 240 l 480 300 l 630 300 z m 180 640 l 30 640 l 30 700 l 180 700 z m 630 160 l 480 160 l 480 220 l 630 220 z m 180 560 l 30 560 l 30 620 l 180 620 z m 180 480 l 30 480 l 30 540 l 180 540 z m 180 400 l 30 400 l 30 460 l 180 460 z m 180 320 l 30 320 l 30 380 l 180 380 z m 630 100 q 630 90 628 80 l 32 80 q 30 90 30 100 l 30 140 l 630 140 z m 180 240 l 30 240 l 30 300 l 180 300 z m 622 60 q 596 0 530 0 l 130 0 q 64 0 38 60 z m 180 160 l 30 160 l 30 220 l 180 220 z"},"o":{"x_min":0,"x_max":660,"ha":660,"o":"m 630 480 l 480 480 l 480 540 l 630 540 z m 622 640 l 38 640 q 64 700 130 700 l 530 700 q 596 700 622 640 z m 630 400 l 480 400 l 480 460 l 630 460 z m 630 560 l 30 560 l 30 600 q 30 610 32 620 l 628 620 q 630 610 630 600 z m 630 320 l 480 320 l 480 380 l 630 380 z m 630 240 l 480 240 l 480 300 l 630 300 z m 630 160 l 480 160 l 480 220 l 630 220 z m 180 480 l 30 480 l 30 540 l 180 540 z m 180 400 l 30 400 l 30 460 l 180 460 z m 180 320 l 30 320 l 30 380 l 180 380 z m 630 100 q 630 90 628 80 l 32 80 q 30 90 30 100 l 30 140 l 630 140 z m 180 240 l 30 240 l 30 300 l 180 300 z m 622 60 q 596 0 530 0 l 130 0 q 64 0 38 60 z m 180 160 l 30 160 l 30 220 l 180 220 z"},"N":{"x_min":0,"x_max":660,"ha":660,"o":"m 630 640 l 480 640 l 480 700 l 630 700 z m 630 560 l 480 560 l 480 620 l 630 620 z m 630 480 l 480 480 l 480 540 l 630 540 z m 630 400 l 480 400 l 480 460 l 630 460 z m 630 320 l 480 320 l 480 380 l 630 380 z m 223 640 l 30 640 l 30 700 l 180 700 z m 280 560 l 30 560 l 30 620 l 237 620 z m 630 240 l 309 240 l 266 300 l 466 300 l 480 280 l 480 300 l 630 300 z m 337 480 l 30 480 l 30 540 l 294 540 z m 451 320 l 251 320 l 209 380 l 409 380 z m 630 160 l 366 160 l 323 220 l 630 220 z m 394 400 l 194 400 l 180 420 l 180 400 l 30 400 l 30 460 l 351 460 z m 630 80 l 423 80 l 380 140 l 630 140 z m 630 0 l 480 0 l 437 60 l 630 60 z m 180 320 l 30 320 l 30 380 l 180 380 z m 180 240 l 30 240 l 30 300 l 180 300 z m 180 160 l 30 160 l 30 220 l 180 220 z m 180 80 l 30 80 l 30 140 l 180 140 z m 180 0 l 30 0 l 30 60 l 180 60 z"},"G":{"x_min":0,"x_max":660,"ha":660,"o":"m 630 640 l 38 640 q 64 700 130 700 l 630 700 z m 630 560 l 30 560 l 30 600 q 30 610 32 620 l 630 620 z m 630 400 l 280 400 l 280 460 l 630 460 z m 630 240 l 480 240 l 480 300 l 630 300 z m 630 320 l 280 320 l 280 380 l 630 380 z m 630 160 l 480 160 l 480 220 l 630 220 z m 180 480 l 30 480 l 30 540 l 180 540 z m 180 400 l 30 400 l 30 460 l 180 460 z m 180 320 l 30 320 l 30 380 l 180 380 z m 630 80 l 32 80 q 30 90 30 100 l 30 140 l 630 140 z m 180 240 l 30 240 l 30 300 l 180 300 z m 630 0 l 130 0 q 64 0 38 60 l 630 60 z m 180 160 l 30 160 l 30 220 l 180 220 z"},"q":{"x_min":0,"x_max":760,"ha":760,"o":"m 630 480 l 480 480 l 480 540 l 630 540 z m 622 640 l 38 640 q 64 700 130 700 l 530 700 q 596 700 622 640 z m 630 400 l 480 400 l 480 460 l 630 460 z m 630 560 l 30 560 l 30 600 q 30 610 32 620 l 628 620 q 630 610 630 600 z m 630 320 l 480 320 l 480 380 l 630 380 z m 630 240 l 480 240 l 480 300 l 630 300 z m 630 160 l 480 160 l 480 220 l 630 220 z m 180 480 l 30 480 l 30 540 l 180 540 z m 180 400 l 30 400 l 30 460 l 180 460 z m 730 80 l 32 80 q 30 90 30 100 l 30 140 l 730 140 z m 180 320 l 30 320 l 30 380 l 180 380 z m 730 0 l 130 0 q 64 0 38 60 l 730 60 z m 180 240 l 30 240 l 30 300 l 180 300 z m 180 160 l 30 160 l 30 220 l 180 220 z"},"d":{"x_min":0,"x_max":660,"ha":660,"o":"m 630 480 l 480 480 l 480 540 l 630 540 z m 622 640 l 30 640 l 30 700 l 530 700 q 596 700 622 640 z m 630 400 l 480 400 l 480 460 l 630 460 z m 630 560 l 30 560 l 30 620 l 628 620 q 630 610 630 600 z m 630 320 l 480 320 l 480 380 l 630 380 z m 630 240 l 480 240 l 480 300 l 630 300 z m 630 160 l 480 160 l 480 220 l 630 220 z m 180 480 l 30 480 l 30 540 l 180 540 z m 180 400 l 30 400 l 30 460 l 180 460 z m 180 320 l 30 320 l 30 380 l 180 380 z m 630 100 q 630 90 628 80 l 30 80 l 30 140 l 630 140 z m 180 240 l 30 240 l 30 300 l 180 300 z m 622 60 q 596 0 530 0 l 30 0 l 30 60 z m 180 160 l 30 160 l 30 220 l 180 220 z"},"1":{"x_min":0,"x_max":310,"ha":310,"o":"m 280 640 l 30 640 l 30 700 l 280 700 z m 280 560 l 30 560 l 30 620 l 280 620 z m 280 480 l 130 480 l 130 540 l 280 540 z m 280 400 l 130 400 l 130 460 l 280 460 z m 280 320 l 130 320 l 130 380 l 280 380 z m 280 240 l 130 240 l 130 300 l 280 300 z m 280 160 l 130 160 l 130 220 l 280 220 z m 280 80 l 130 80 l 130 140 l 280 140 z m 280 0 l 130 0 l 130 60 l 280 60 z"},"5":{"x_min":0,"x_max":610,"ha":610,"o":"m 580 640 l 30 640 l 30 700 l 580 700 z m 580 560 l 30 560 l 30 620 l 580 620 z m 580 240 l 430 240 l 430 300 l 580 300 z m 572 400 l 32 400 q 30 410 30 420 l 30 460 l 480 460 q 546 460 572 400 z m 580 160 l 430 160 l 430 220 l 580 220 z m 580 320 l 130 320 q 64 320 38 380 l 578 380 q 580 370 580 360 z m 180 480 l 30 480 l 30 540 l 180 540 z m 580 100 q 580 90 578 80 l 30 80 l 30 140 l 580 140 z m 572 60 q 546 0 480 0 l 30 0 l 30 60 z"}}}
